# xmcd
#
# Track frame offsets: 
#        150
#        3286
#        12005
#        14511
#        17017
#        19543
#        22077
#        24581
#        25091
#        25749
#        26572
#        27116
#        27625
#        28532
#        30573
#        31128
#        31717
#        32267
#        32772
#        33455
#        34414
#        35376
#        36345
#        37305
#        38298
#        38863
#        39783
#        40773
#        41737
#        42776
#        43743
#        44683
#        45846
#        46521
#        47256
#        47809
#        48860
#        49458
#        50328
#        50925
#        57517
#        61880
#        62668
#        63358
#        64101
#        64791
#        65616
#        66538
#        81203
#        87088
#        90588
#        94093
#        95193
#        96113
#        97669
#        98585
#        115384
#        137890
#        140397
#        142888
#        145391
#        147881
#        169111
#        171825
#        178260
#
# Disc length: 2677 seconds
#
# Revision: 0
# Processed by: cddbd v1.5.1PL2 Copyright (c) Steve Scherf et al.
# Submitted via: ExactAudioCopy v0.95b3
#
DISCID=650a7341
DTITLE=Guitar College - Special Blues 1
DYEAR=2003
DGENRE=Blues
TTITLE0=01 - (Guitar College вступление)
TTITLE1=02 - Настройка Гитары
TTITLE2=03 - Блюзовый Ритм 1
TTITLE3=04 - Блюзовый Ритм 2
TTITLE4=05 - Блюзовый Ритм 3
TTITLE5=06 - Блюзовый Ритм 4
TTITLE6=07 - Блюзовый Ритм 5
TTITLE7=08 - Блюзовое соло: блюзовая гамма 1
TTITLE8=09 - Блюзовое соло: блюзовая гамма 2
TTITLE9=10 - Блюзовое соло: блюзовая гамма 3
TTITLE10=11 - Мажорная Пентатоника 1
TTITLE11=12 - Мажорная Пентатоника 2
TTITLE12=13 - Мажорная Пентатоника 3
TTITLE13=14 - Аккордовые ноты
TTITLE14=15 - Фразировка 1
TTITLE15=16 - Фразировка 2
TTITLE16=17 - Фразировка 3
TTITLE17=18 - Фразировка 4
TTITLE18=19 - Фразировка 5
TTITLE19=20 - Тернераунд 1
TTITLE20=21 - Тернераунд 2
TTITLE21=22 - Тернераунд 3
TTITLE22=23 - Тернераунд 4
TTITLE23=24 - Тернераунд 5
TTITLE24=25 - Тернераунд 6
TTITLE25=26 - Тернераунд 7
TTITLE26=27 - Тернераунд 8
TTITLE27=28 - Тернераунд 9
TTITLE28=29 - Тернераунд 10
TTITLE29=30 - Тернераунд 11
TTITLE30=31 - Тернераунд 12
TTITLE31=32 - Тернераунд 13
TTITLE32=33 - Бенды пальцевым стилем 1
TTITLE33=34 - Бенды пальцевым стилем 2
TTITLE34=35 - Бенды пальцевым стилем 3
TTITLE35=36 - Бенды пальцевым стилем 4
TTITLE36=37 - Бенды пальцевым стилем 5
TTITLE37=38 - Бенды пальцевым стилем 6
TTITLE38=39 - Бенды пальцевым стилем 7
TTITLE39=40 - I'm Not Lonely
TTITLE40=41 - Late Night
TTITLE41=42 - Бенды и фразировка Клэптона 1
TTITLE42=43 - Бенды и фразировка Клэптона 2
TTITLE43=44 - Бенды и фразировка Клэптона 3
TTITLE44=45 - Бенды и фразировка Клэптона 4
TTITLE45=46 - Бенды и фразировка Клэптона 5
TTITLE46=47 - Бенды и фразировка Клэптона 6
TTITLE47=48 - Eric Clapton - Hideaway
TTITLE48=49 - Doc Watson - Weary Blues
TTITLE49=50 - Дабл-стопы 1
TTITLE50=51 - Дабл-стопы 2
TTITLE51=52 - Дабл-стопы 3
TTITLE52=53 - Дабл-стопы 4
TTITLE53=54 - Дабл-стопы 5
TTITLE54=55 - Дабл-стопы 6
TTITLE55=56 - Jimi Hendrix - Red House
TTITLE56=57 - Steve Ray Vaughan - Lenny
TTITLE57=58 - Духовые риффы 1
TTITLE58=59 - Духовые риффы 2
TTITLE59=60 - Духовые риффы 3
TTITLE60=61 - Buddy Guy - Just Teasin 1
TTITLE61=62 - Buddy Guy - Just Teasin 2
TTITLE62=63 - Paul Gilbert - Screaming Blues-o-Mania
TTITLE63=64 - Yngwie Malmsteen - Spacebo Blues
TTITLE64=65 - (Guitar College реклама)
EXTD=
EXTT0=
EXTT1=
EXTT2=
EXTT3=
EXTT4=
EXTT5=
EXTT6=
EXTT7=
EXTT8=
EXTT9=
EXTT10=
EXTT11=
EXTT12=
EXTT13=
EXTT14=
EXTT15=
EXTT16=
EXTT17=
EXTT18=
EXTT19=
EXTT20=
EXTT21=
EXTT22=
EXTT23=
EXTT24=
EXTT25=
EXTT26=
EXTT27=
EXTT28=
EXTT29=
EXTT30=
EXTT31=
EXTT32=
EXTT33=
EXTT34=
EXTT35=
EXTT36=
EXTT37=
EXTT38=
EXTT39=
EXTT40=
EXTT41=
EXTT42=
EXTT43=
EXTT44=
EXTT45=
EXTT46=
EXTT47=
EXTT48=
EXTT49=
EXTT50=
EXTT51=
EXTT52=
EXTT53=
EXTT54=
EXTT55=
EXTT56=
EXTT57=
EXTT58=
EXTT59=
EXTT60=
EXTT61=
EXTT62=
EXTT63=
EXTT64=
PLAYORDER=
